<?xml version="1.0" encoding="UTF-8" standalone="no"?>
<!-- Created with Inkscape (http://www.inkscape.org/) -->

<svg
   xmlns:dc="http://purl.org/dc/elements/1.1/"
   xmlns:cc="http://creativecommons.org/ns#"
   xmlns:rdf="http://www.w3.org/1999/02/22-rdf-syntax-ns#"
   xmlns:svg="http://www.w3.org/2000/svg"
   xmlns="http://www.w3.org/2000/svg"
   xmlns:xlink="http://www.w3.org/1999/xlink"
   xmlns:sodipodi="http://sodipodi.sourceforge.net/DTD/sodipodi-0.dtd"
   xmlns:inkscape="http://www.inkscape.org/namespaces/inkscape"
   width="222.00002mm"
   height="221.99997mm"
   viewBox="0 0 222.00001 221.99996"
   version="1.1"
   id="svg70557"
   sodipodi:docname="ai_case_2.svg"
   inkscape:version="0.92.5 (2060ec1f9f, 2020-04-08)">
  <defs
     id="defs70551">
    <linearGradient
       id="linearGradient4008-5">
      <stop
         id="stop5260"
         offset="0"
         style="stop-color:#0f0f0f;stop-opacity:1;" />
      <stop
         id="stop5262"
         offset="1"
         style="stop-color:#505050;stop-opacity:1;" />
    </linearGradient>
    <radialGradient
       r="42.813107"
       fy="102.99806"
       fx="348.85776"
       cy="102.99806"
       cx="348.85776"
       gradientTransform="matrix(1.5277419,1.5277419,-1.5277418,1.5277418,-520.45391,246.73117)"
       gradientUnits="userSpaceOnUse"
       id="radialGradient4436"
       xlink:href="#linearGradient4241"
       inkscape:collect="always" />
    <linearGradient
       id="linearGradient4241">
      <stop
         id="stop4249"
         offset="0"
         style="stop-color:#000000;stop-opacity:0;" />
      <stop
         style="stop-color:#000000;stop-opacity:0;"
         offset="0.1875"
         id="stop4259" />
      <stop
         style="stop-color:#000000;stop-opacity:0;"
         offset="0.375"
         id="stop4255" />
      <stop
         style="stop-color:#000000;stop-opacity:0;"
         offset="0.75"
         id="stop4251" />
      <stop
         id="stop4253"
         offset="0.875"
         style="stop-color:#000000;stop-opacity:0;" />
      <stop
         style="stop-color:#000000;stop-opacity:0.19607843;"
         offset="0.9375"
         id="stop4257" />
      <stop
         style="stop-color:#000000;stop-opacity:0.39215687;"
         offset="1"
         id="stop4245" />
    </linearGradient>
    <linearGradient
       id="linearGradient4008">
      <stop
         style="stop-color:#505050;stop-opacity:1;"
         offset="0"
         id="stop4010" />
      <stop
         style="stop-color:#282828;stop-opacity:1;"
         offset="1"
         id="stop4012" />
    </linearGradient>
    <linearGradient
       id="linearGradient4008-5-7">
      <stop
         style="stop-color:#111111;stop-opacity:1;"
         offset="0"
         id="stop4010-92-7" />
      <stop
         style="stop-color:#646464;stop-opacity:1;"
         offset="1"
         id="stop4012-1-6" />
    </linearGradient>
    <linearGradient
       id="linearGradient4380">
      <stop
         style="stop-color:#1e1e1e;stop-opacity:1;"
         offset="0"
         id="stop4382" />
      <stop
         style="stop-color:#4b4b4b;stop-opacity:1;"
         offset="1"
         id="stop4384" />
    </linearGradient>
    <linearGradient
       id="linearGradient4008-5-3">
      <stop
         style="stop-color:#0f0f0f;stop-opacity:1;"
         offset="0"
         id="stop4010-92" />
      <stop
         style="stop-color:#505050;stop-opacity:1;"
         offset="1"
         id="stop4012-1" />
    </linearGradient>
    <linearGradient
       id="linearGradient4008-0">
      <stop
         style="stop-color:#464646;stop-opacity:1;"
         offset="0"
         id="stop4010-2" />
      <stop
         style="stop-color:#282828;stop-opacity:1;"
         offset="1"
         id="stop4012-95" />
    </linearGradient>
    <linearGradient
       id="linearGradient4008-5-1">
      <stop
         style="stop-color:#373737;stop-opacity:1;"
         offset="0"
         id="stop4010-92-3" />
      <stop
         style="stop-color:#464646;stop-opacity:1;"
         offset="1"
         id="stop4012-1-62" />
    </linearGradient>
    <linearGradient
       id="linearGradient4900-3">
      <stop
         style="stop-color:#000000;stop-opacity:0;"
         offset="0"
         id="stop4902-4" />
      <stop
         style="stop-color:#000000;stop-opacity:0.58823532;"
         offset="1"
         id="stop4904-1" />
    </linearGradient>
  </defs>
  <sodipodi:namedview
     id="base"
     pagecolor="#ffffff"
     bordercolor="#666666"
     borderopacity="1.0"
     inkscape:pageopacity="0.0"
     inkscape:pageshadow="2"
     inkscape:zoom="0.49497475"
     inkscape:cx="300.1768"
     inkscape:cy="507.64432"
     inkscape:document-units="mm"
     inkscape:current-layer="g3810"
     showgrid="false"
     inkscape:window-width="1836"
     inkscape:window-height="1016"
     inkscape:window-x="3924"
     inkscape:window-y="27"
     inkscape:window-maximized="1"
     showguides="false"
     inkscape:snap-page="true"
     fit-margin-top="0"
     fit-margin-left="0"
     fit-margin-right="0"
     fit-margin-bottom="0">
    <inkscape:grid
       type="xygrid"
       id="grid7745"
       originx="-46.262496"
       originy="-89.762688" />
  </sodipodi:namedview>
  <metadata
     id="metadata70554">
    <rdf:RDF>
      <cc:Work
         rdf:about="">
        <dc:format>image/svg+xml</dc:format>
        <dc:type
           rdf:resource="http://purl.org/dc/dcmitype/StillImage" />
        <dc:title />
      </cc:Work>
    </rdf:RDF>
  </metadata>
  <g
     inkscape:label="Calque 1"
     inkscape:groupmode="layer"
     id="layer1"
     transform="translate(-46.262499,14.762651)">
    <g
       transform="translate(18.887533,-830.24983)"
       id="layer1-5"
       inkscape:label="Layer 1"
       style="opacity:1">
      <g
         transform="translate(283.21872,-10.56252)"
         id="g3810">
        <path
           inkscape:connector-curvature="0"
           style="fill:url(#radialGradient4436);fill-opacity:1;stroke:none"
           d="m -144.84375,844.55025 c -23.67281,0 -47.3445,9.032 -65.40625,27.0937 -36.1235,36.1235 -36.1235,94.689 0,130.81255 36.1235,36.1235 94.68901,36.1235 130.8125,0 36.1235,-36.12355 36.1235,-94.68905 0,-130.81255 -18.06174,-18.0617 -41.73343,-27.0937 -65.40625,-27.0937 z m 0,17.5 c 41.42136,0 75,33.5786 75,75 0,41.4213 -33.57864,75.00005 -75,75.00005 -41.42135,0 -75,-33.57875 -75,-75.00005 0,-41.4214 33.57865,-75 75,-75 z"
           id="path4239" />
        <g
           id="g3774">
          <g
             transform="translate(-532.03125,1.5624825)"
             id="g5201">
            <g
               id="g5191">
              <g
                 id="g5187">
                <rect
                   style="fill:#262830;fill-opacity:1;stroke:none;stroke-width:0.2;stroke-miterlimit:4;stroke-dasharray:none;stroke-opacity:1"
                   id="rect6445-2-0"
                   width="1"
                   height="10.468018"
                   x="386.6875"
                   y="935.48718" />
              </g>
              <g
                 id="g5181">
                <path
                   inkscape:connector-curvature="0"
                   style="fill:#7bcfcf;fill-opacity:0.86274511;stroke:#000000;stroke-width:0.2;stroke-miterlimit:4;stroke-dasharray:none;stroke-opacity:1"
                   d="m 378.53125,842.48721 2.65625,15 h 4 v -15 h -2.59375 z m 10.65625,0 v 15 h 4 l 2.65625,-15 h -4.0625 z"
                   id="rect5249" />
                <g
                   id="g5177">
                  <path
                     inkscape:connector-curvature="0"
                     id="path5388"
                     d="m 397.6875,933.4559 c -1.10457,0 -2,0.89543 -2,2 0,4.6944 -3.80558,8.5 -8.5,8.5 -4.68395,0 -8.48308,-3.78878 -8.5,-8.46875 0,-0.0104 1.6e-4,-0.0209 0,-0.0312 -0.0166,-1.09024 -0.90581,-1.96875 -2,-1.96875 h -45 c -1.10457,0 -2,0.89543 -2,2 0,1.10456 0.89543,2 2,2 h 43.1875 c 0.96951,5.93839 6.09993,10.46875 12.3125,10.46875 6.21257,0 11.31174,-4.53036 12.28125,-10.46875 h 43.21875 c 1.10457,0 2,-0.89544 2,-2 0,-1.10457 -0.89543,-2 -2,-2 H 397.875 c -0.0672,-0.007 -0.11846,-0.0312 -0.1875,-0.0312 z"
                     style="fill:#7bcfcf;fill-opacity:0.86274511;stroke:#000000;stroke-width:0.2;stroke-miterlimit:4;stroke-dasharray:none;stroke-opacity:1" />
                  <ellipse
                     ry="6.25"
                     rx="7.421875"
                     cy="100.15625"
                     cx="-194.92188"
                     transform="matrix(0.26947368,0,0,0.32,439.71381,903.4372)"
                     id="path5568"
                     style="fill:#7bcfcf;fill-opacity:0.86274511;stroke:#000000;stroke-width:0.68107796;stroke-miterlimit:4;stroke-dasharray:none;stroke-opacity:1" />
                </g>
              </g>
            </g>
            <path
               inkscape:connector-curvature="0"
               style="fill:#262830;fill-opacity:1;stroke:none;stroke-width:0.2;stroke-miterlimit:4;stroke-dasharray:none;stroke-opacity:1"
               d="m 372.1875,981.16816 -11.5625,20.00004 h 23.09375 6.9375 23.09375 l -11.5625,-20.00004 z"
               id="rect5007" />
          </g>
          <g
             id="g3762">
            <g
               id="g4976"
               transform="translate(-532.03125,1.5624987)">
              <path
                 inkscape:connector-curvature="0"
                 id="path3234-6"
                 d="m 465.67636,856.99835 c -43.34819,-43.3482 -113.6295,-43.3482 -156.9777,0 -43.34821,43.34821 -43.34822,113.62953 -2e-5,156.97775 43.3482,43.3481 113.62952,43.3481 156.97772,-10e-5 43.3482,-43.34814 43.3482,-113.62945 0,-156.97765 z m -1.06066,1.06066 c 42.76241,42.76241 42.76241,112.09398 0,154.85639 -42.76243,42.7624 -112.09399,42.7624 -154.8564,0 -42.76241,-42.76239 -42.76242,-112.09395 2e-5,-154.85639 42.76241,-42.76241 112.09397,-42.76241 154.85638,0 z"
                 style="fill:#323232;fill-opacity:1;stroke:none" />
              <path
                 inkscape:connector-curvature="0"
                 id="path3234"
                 d="m 464.96924,857.70536 c -42.95768,-42.9576 -112.60584,-42.9576 -155.56349,0 -42.95774,42.9578 -42.9577,112.6059 -3e-5,155.56354 42.95768,42.9577 112.60578,42.9578 155.56352,0 42.95765,-42.95764 42.95767,-112.60584 0,-155.56354 z m -2.47488,2.4749 c 41.59083,41.5908 41.59083,109.0229 0,150.61374 -41.59089,41.5909 -109.02293,41.5909 -150.61376,0 -41.59082,-41.59084 -41.59087,-109.02284 10e-6,-150.61374 41.59082,-41.5908 109.02291,-41.5908 150.61375,0 z"
                 style="fill:#23242f;fill-opacity:1;stroke:none" />
              <path
                 inkscape:connector-curvature="0"
                 id="path3234-9-8"
                 d="m 458.60527,864.06944 c -39.443,-39.443 -103.39262,-39.443 -142.8356,0 -39.44295,39.4429 -39.44297,103.3926 0,142.83546 39.44299,39.443 103.39263,39.4429 142.8356,0 39.44294,-39.44276 39.44297,-103.39256 0,-142.83546 z m -6.36397,6.3639 c 35.92824,35.9283 35.92824,94.1795 0,130.10776 -35.92821,35.928 -94.17942,35.928 -130.10766,0 -35.92825,-35.92826 -35.92821,-94.17956 0,-130.10776 35.92824,-35.9282 94.17942,-35.9282 130.10766,0 z"
                 style="fill:#353c46;fill-opacity:1;stroke:none" />
              <path
                 inkscape:connector-curvature="0"
                 id="path4344"
                 d="m 317.78799,995.8796 -7.25,4.625 7.25,4.625 h 138.8125 l 7.25,-4.625 -7.25,-4.625 h -54.125 -30.59375 -21.34375 z"
                 style="fill:#262830;fill-opacity:1;stroke:none" />
              <path
                 inkscape:connector-curvature="0"
                 id="path3234-9"
                 d="m 387.19424,828.50464 c -27.3837,0 -54.7944,10.4507 -75.6875,31.3438 -38.3976,38.3976 -41.4826,98.7031 -9.3125,140.65616 0.072,0.095 0.14595,0.187 0.21875,0.2813 0.2727,0.3533 0.5346,0.7118 0.8125,1.0625 0.2863,0.3618 0.55295,0.7358 0.84375,1.0937 0.5982,0.7352 1.22305,1.4647 1.84375,2.1875 0.019,0.022 0.0436,0.043 0.0625,0.062 0.5733,0.6665 1.1578,1.3133 1.75,1.9688 0.2374,0.263 0.47895,0.5206 0.71875,0.7812 0.3819,0.4145 0.76675,0.8402 1.15625,1.25 0.1423,0.1497 0.2944,0.2886 0.4375,0.4375 0.4933,0.5131 0.96325,1.0258 1.46875,1.5313 0.099,0.099 0.2137,0.1832 0.3125,0.2812 0.3561,0.3533 0.7015,0.7141 1.0625,1.0625 0.463,0.4471 0.93715,0.8755 1.40625,1.3125 0.0589,0.056 0.1278,0.101 0.1875,0.1563 0.4088,0.3792 0.80555,0.7533 1.21875,1.125 0.6179,0.5552 1.2444,1.1154 1.875,1.6562 0.626,0.5368 1.26785,1.0713 1.90625,1.5938 0.0631,0.051 0.1249,0.1051 0.1875,0.1562 0.5077,0.4136 1.01585,0.8144 1.53125,1.2188 0.6553,0.5146 1.30425,1.0341 1.96875,1.5312 0.2019,0.1511 0.39075,0.3191 0.59375,0.4688 0.048,0.036 0.10775,0.058 0.15625,0.094 0.6966,0.5117 1.4155,1.0051 2.125,1.5 0.7553,0.5273 1.51555,1.0571 2.28125,1.5625 0.07,0.046 0.14855,0.079 0.21875,0.125 1.6987,1.116 3.41035,2.1785 5.15625,3.1875 0.8729,0.5046 1.7413,0.9911 2.625,1.4688 0.9002,0.4866 1.80785,0.9473 2.71875,1.4062 0.2411,0.1216 0.47685,0.2555 0.71875,0.375 0.6658,0.3298 1.3265,0.6525 2,0.9688 0.9159,0.4293 1.8248,0.8481 2.75,1.25 h 0.0312 c 0.7898,0.3428 1.5788,0.6772 2.375,1 0.1474,0.06 0.2899,0.1283 0.4375,0.1875 0.6595,0.2639 1.3367,0.4997 2,0.75 0.6507,0.246 1.31215,0.4851 1.96875,0.7187 0.2607,0.093 0.52015,0.1909 0.78125,0.2813 0.7139,0.2478 1.43555,0.4857 2.15625,0.7187 0.8207,0.2654 1.63965,0.5354 2.46875,0.7813 0.0641,0.019 0.1238,0.044 0.1875,0.062 0.7065,0.2081 1.4124,0.3999 2.125,0.5937 0.8831,0.2397 1.76845,0.4708 2.65625,0.6875 0.6757,0.1652 1.35075,0.3165 2.03125,0.4688 0.2083,0.046 0.4167,0.1109 0.625,0.1562 0.7944,0.1727 1.60545,0.3139 2.40625,0.4688 0.7571,0.1464 1.51855,0.3071 2.28125,0.4375 0.083,0.014 0.1674,0.017 0.25,0.031 0.6572,0.1108 1.30755,0.2138 1.96875,0.3125 0.4675,0.07 0.93805,0.1237 1.40625,0.1875 1.4117,0.1916 2.8215,0.3641 4.25,0.5 0.644,0.061 1.2903,0.1065 1.9375,0.1563 0.2085,0.016 0.4166,0.051 0.625,0.062 0.0831,0.01 0.1671,-0.01 0.25,0 0.5926,0.041 1.18615,0.094 1.78125,0.125 0.1772,0.01 0.35405,-0.01 0.53125,0 0.6337,0.03 1.26975,0.044 1.90625,0.062 1.0746,0.032 2.175,0.062 3.25,0.062 1.075,0 2.14425,-0.034 3.21875,-0.062 0.8141,-0.024 1.6283,-0.051 2.4375,-0.094 0.5952,-0.031 1.18875,-0.084 1.78125,-0.125 0.083,-0.01 0.167,0.01 0.25,0 0.2089,-0.015 0.4165,-0.046 0.625,-0.062 0.6452,-0.05 1.2931,-0.095 1.9375,-0.1562 1.4064,-0.1338 2.7975,-0.281 4.1875,-0.4688 1.2641,-0.1708 2.53155,-0.3791 3.78125,-0.5937 0.7426,-0.1274 1.48145,-0.2636 2.21875,-0.4063 0.5573,-0.1079 1.10045,-0.1957 1.65625,-0.3125 0.4522,-0.095 0.89355,-0.2118 1.34375,-0.3125 1.5117,-0.3382 3.03265,-0.7206 4.53125,-1.125 0.8276,-0.2236 1.64925,-0.4447 2.46875,-0.6875 0.839,-0.2486 1.6697,-0.5127 2.5,-0.7812 0.7873,-0.2545 1.56475,-0.5091 2.34375,-0.7813 0.0851,-0.03 0.1657,-0.064 0.25,-0.094 0.4686,-0.1646 0.93955,-0.3286 1.40625,-0.5 0.2934,-0.108 0.5828,-0.2333 0.875,-0.3438 0.6634,-0.2503 1.3406,-0.4861 2,-0.75 0.1476,-0.059 0.2902,-0.1276 0.4375,-0.1875 0.1381,-0.056 0.26845,-0.1309 0.40625,-0.1875 1.4711,-0.6052 2.9378,-1.2071 4.375,-1.875 0.1258,-0.058 0.2497,-0.1287 0.375,-0.1875 0.6675,-0.3134 1.3404,-0.642 2,-0.9687 0.2503,-0.1237 0.5006,-0.2492 0.75,-0.375 0.5336,-0.2693 1.06535,-0.5345 1.59375,-0.8125 0.3676,-0.1933 0.72795,-0.3959 1.09375,-0.5938 0.4057,-0.2195 0.81625,-0.4315 1.21875,-0.6562 0.4821,-0.2688 0.9587,-0.5357 1.4375,-0.8125 0.8743,-0.5058 1.73535,-1.0329 2.59375,-1.5625 1.6803,-1.0366 3.33555,-2.1118 4.96875,-3.25 0.024,-0.016 0.0395,-0.049 0.0625,-0.062 0.7094,-0.4949 1.4283,-0.9884 2.125,-1.5 0.1136,-0.083 0.23045,-0.166 0.34375,-0.25 0.6065,-0.4489 1.216,-0.9136 1.8125,-1.375 0.1984,-0.1535 0.39625,-0.3137 0.59375,-0.4688 0.5154,-0.4044 1.02365,-0.805 1.53125,-1.2187 0.04,-0.033 0.0851,-0.061 0.125,-0.094 0.6589,-0.5383 1.2918,-1.1026 1.9375,-1.6562 0.6333,-0.5431 1.2545,-1.0988 1.875,-1.6563 0.0609,-0.054 0.1272,-0.1017 0.1875,-0.1562 0.4022,-0.3633 0.7897,-0.7233 1.1875,-1.0938 0.2702,-0.2514 0.5451,-0.4959 0.8125,-0.75 0.4544,-0.4318 0.9267,-0.8712 1.375,-1.3125 0.209,-0.2055 0.4179,-0.4179 0.625,-0.625 0.5108,-0.5107 1.0019,-1.0128 1.5,-1.5312 0.1392,-0.1447 0.26795,-0.292 0.40625,-0.4375 0.5464,-0.5748 1.0938,-1.1661 1.625,-1.75 0.084,-0.093 0.1659,-0.1882 0.25,-0.2813 0.5923,-0.6555 1.1768,-1.3022 1.75,-1.9687 0.019,-0.022 0.0435,-0.012 0.0625,-0.031 0.6353,-0.7399 1.2632,-1.4971 1.875,-2.25 0.5256,-0.6478 1.0518,-1.3084 1.5625,-1.9687 0.1046,-0.135 0.2087,-0.2709 0.3125,-0.4063 32.1702,-41.95306 29.05395,-102.25856 -9.34375,-140.65616 -20.893,-20.893 -48.27255,-31.3438 -75.65625,-31.3438 z m -2.40625,6.5 c 0.80357,-0.019 1.60249,0 2.40625,0 25.7202,0 51.4387,9.8136 71.0625,29.4375 37.2896,37.2895 39.1313,96.5764 5.5625,136.06246 h -25.53125 -35.8125 -30.59375 -1.71875 -29.90625 -8.9375 -20.78125 c -33.5688,-39.48606 -31.69575,-98.77296 5.59375,-136.06246 19.01065,-19.0106 43.74568,-28.8433 68.65625,-29.4375 z"
                 style="fill:#2d303a;fill-opacity:1;stroke:none" />
            </g>
            <g
               id="g4949"
               transform="matrix(1.3333331,0,0,1.3333344,-661.09366,-337.28846)" />
          </g>
        </g>
      </g>
    </g>
  </g>
</svg>
