<?xml version="1.0" encoding="UTF-8" standalone="no"?>
<!-- Created with Inkscape (http://www.inkscape.org/) -->

<svg
   xmlns:dc="http://purl.org/dc/elements/1.1/"
   xmlns:cc="http://creativecommons.org/ns#"
   xmlns:rdf="http://www.w3.org/1999/02/22-rdf-syntax-ns#"
   xmlns:svg="http://www.w3.org/2000/svg"
   xmlns="http://www.w3.org/2000/svg"
   xmlns:sodipodi="http://sodipodi.sourceforge.net/DTD/sodipodi-0.dtd"
   xmlns:inkscape="http://www.inkscape.org/namespaces/inkscape"
   width="111"
   height="111"
   viewBox="0 0 29.36875 29.368751"
   version="1.1"
   id="svg8"
   inkscape:version="0.92.5 (2060ec1f9f, 2020-04-08)"
   sodipodi:docname="pitch_back.svg">
  <defs
     id="defs2" />
  <sodipodi:namedview
     id="base"
     pagecolor="#ffffff"
     bordercolor="#666666"
     borderopacity="1.0"
     inkscape:pageopacity="0.0"
     inkscape:pageshadow="2"
     inkscape:zoom="5.6"
     inkscape:cx="42.892098"
     inkscape:cy="56.362292"
     inkscape:document-units="mm"
     inkscape:current-layer="layer1"
     showgrid="false"
     units="px"
     inkscape:window-width="1848"
     inkscape:window-height="1016"
     inkscape:window-x="72"
     inkscape:window-y="27"
     inkscape:window-maximized="1"
     inkscape:pagecheckerboard="true" />
  <metadata
     id="metadata5">
    <rdf:RDF>
      <cc:Work
         rdf:about="">
        <dc:format>image/svg+xml</dc:format>
        <dc:type
           rdf:resource="http://purl.org/dc/dcmitype/StillImage" />
        <dc:title></dc:title>
      </cc:Work>
    </rdf:RDF>
  </metadata>
  <g
     inkscape:label="Layer 1"
     inkscape:groupmode="layer"
     id="layer1"
     transform="translate(0,-267.63123)">
    <g
       id="g829"
       transform="matrix(0.76982037,0,0,0.76982037,-9.7574217,78.120767)">
      <g
         transform="translate(-1.2756701,7.4888411)"
         id="g837">
        <rect
           style="opacity:0.98999999;fill:#ff0000;fill-opacity:1;stroke:none;stroke-width:0.06763263;stroke-miterlimit:4;stroke-dasharray:0.06763264, 0.06763264;stroke-dashoffset:0;stroke-opacity:1"
           id="rect815"
           width="37.136162"
           height="8.5044641"
           x="14.457589"
           y="250.03644" />
        <circle
           style="opacity:0.98999999;fill:#000000;fill-opacity:1;stroke:none;stroke-width:0.065;stroke-miterlimit:4;stroke-dasharray:0.065, 0.065;stroke-dashoffset:0;stroke-opacity:1"
           id="path817"
           cx="21.582439"
           cy="259.48584"
           r="6" />
        <circle
           style="opacity:0.98999999;fill:#000000;fill-opacity:1;stroke:none;stroke-width:0.065;stroke-miterlimit:4;stroke-dasharray:0.065, 0.065;stroke-dashoffset:0;stroke-opacity:1"
           id="path817-3"
           cx="43.996429"
           cy="259.48584"
           r="6" />
      </g>
      <path
         inkscape:connector-curvature="0"
         id="path841"
         d="m 31.75,246.24998 v 38 0"
         style="fill:#0000ff;stroke:#0005ff;stroke-width:0.3636255;stroke-linecap:butt;stroke-linejoin:miter;stroke-miterlimit:4;stroke-dasharray:2.18175297, 0.36362549;stroke-dashoffset:0;stroke-opacity:1" />
      <g
         style="fill:#f2f2f2;stroke:none;stroke-opacity:1"
         transform="matrix(2.6130153e-6,2.3639991e-4,2.3639991e-4,-2.6130153e-6,13.768677,258.10965)"
         id="g890">
        <path
           style="fill:#f2f2f2;stroke:none;stroke-opacity:1"
           inkscape:connector-curvature="0"
           d="M 314,12790 C 119,12749 -21,12548 5,12345 11,12294 388,11534 3045,6220 5946,419 6081,151 6127,110 6188,56 6284,11 6358,4 c 118,-13 258,40 334,125 31,35 771,1508 3070,6106 2924,5849 3029,6062 3035,6126 15,173 -76,326 -237,403 -59,27 -74,30 -160,30 -79,-1 -104,-5 -150,-26 -30,-13 -1359,-894 -2953,-1956 L 6400,8880 3503,10812 c -1594,1062 -2923,1942 -2953,1956 -61,27 -168,37 -236,22 z"
           id="path888" />
      </g>
    </g>
  </g>
</svg>
